<mxfile host="Electron" modified="2024-03-30T08:15:15.472Z" agent="Mozilla/5.0 (Macintosh; Intel Mac OS X 10_15_7) AppleWebKit/537.36 (KHTML, like Gecko) draw.io/24.1.0 Chrome/120.0.6099.109 Electron/28.1.0 Safari/537.36" etag="NDR-bzlP2EX5ICye7geh" version="24.1.0" type="device">
  <diagram name="第 1 页" id="GWtmTnLwVfOqKawCSc8_">
    <mxGraphModel dx="1026" dy="655" grid="1" gridSize="10" guides="1" tooltips="1" connect="1" arrows="1" fold="1" page="1" pageScale="1" pageWidth="827" pageHeight="1169" math="0" shadow="0">
      <root>
        <mxCell id="0" />
        <mxCell id="1" parent="0" />
        <mxCell id="wIALHnG7Qorzdpag021h-2" value="&lt;div style=&quot;font-size: 15px;&quot;&gt;①data = mmap(&quot;cidr.db&quot;)&lt;/div&gt;&lt;div style=&quot;font-size: 15px;&quot;&gt;返回一个指向文件的指针&lt;/div&gt;" style="rounded=1;whiteSpace=wrap;html=1;fillColor=#fff2cc;strokeColor=#d6b656;fontSize=15;gradientColor=#ffd966;" vertex="1" parent="1">
          <mxGeometry x="190" y="100" width="180" height="60" as="geometry" />
        </mxCell>
        <mxCell id="wIALHnG7Qorzdpag021h-5" value="" style="rounded=1;whiteSpace=wrap;html=1;fillColor=#d0cee2;strokeColor=#000000;" vertex="1" parent="1">
          <mxGeometry x="190" y="186.5" width="190" height="50" as="geometry" />
        </mxCell>
        <mxCell id="wIALHnG7Qorzdpag021h-9" value="&lt;font style=&quot;font-size: 16px;&quot;&gt;虚拟&lt;/font&gt;&lt;div style=&quot;font-size: 16px;&quot;&gt;&lt;font style=&quot;font-size: 16px;&quot;&gt;地址&lt;/font&gt;&lt;/div&gt;" style="text;html=1;align=center;verticalAlign=middle;whiteSpace=wrap;rounded=0;" vertex="1" parent="1">
          <mxGeometry x="134.5" y="196.5" width="60" height="30" as="geometry" />
        </mxCell>
        <mxCell id="wIALHnG7Qorzdpag021h-10" value="&lt;font style=&quot;font-size: 16px;&quot;&gt;物理&lt;/font&gt;&lt;div style=&quot;font-size: 16px;&quot;&gt;&lt;font style=&quot;font-size: 16px;&quot;&gt;地址&lt;/font&gt;&lt;/div&gt;" style="text;html=1;align=center;verticalAlign=middle;whiteSpace=wrap;rounded=0;" vertex="1" parent="1">
          <mxGeometry x="130" y="270" width="69" height="38.5" as="geometry" />
        </mxCell>
        <mxCell id="wIALHnG7Qorzdpag021h-15" value="" style="rounded=1;whiteSpace=wrap;html=1;fillColor=#d5e8d4;strokeColor=#000000;" vertex="1" parent="1">
          <mxGeometry x="190" y="269" width="190" height="50" as="geometry" />
        </mxCell>
        <mxCell id="wIALHnG7Qorzdpag021h-17" value="" style="endArrow=none;html=1;rounded=0;exitX=0.316;exitY=1;exitDx=0;exitDy=0;exitPerimeter=0;" edge="1" parent="1" source="wIALHnG7Qorzdpag021h-5">
          <mxGeometry width="50" height="50" relative="1" as="geometry">
            <mxPoint x="250" y="226.5" as="sourcePoint" />
            <mxPoint x="250" y="186.5" as="targetPoint" />
          </mxGeometry>
        </mxCell>
        <mxCell id="wIALHnG7Qorzdpag021h-20" value="&lt;span style=&quot;font-size: 16px; background-color: initial;&quot;&gt;应用程序&lt;/span&gt;&lt;div&gt;&lt;span style=&quot;font-size: 16px; background-color: initial;&quot;&gt;call&amp;nbsp;&lt;/span&gt;&lt;span style=&quot;background-color: initial; font-size: 16px;&quot;&gt;mmap&lt;/span&gt;&lt;/div&gt;" style="text;html=1;align=center;verticalAlign=middle;whiteSpace=wrap;rounded=0;" vertex="1" parent="1">
          <mxGeometry x="95" y="115" width="89.5" height="30" as="geometry" />
        </mxCell>
        <mxCell id="wIALHnG7Qorzdpag021h-22" value="&lt;font style=&quot;font-size: 14px;&quot;&gt;②&lt;/font&gt;&lt;div&gt;&lt;font style=&quot;font-size: 14px;&quot;&gt;0x56a3&lt;/font&gt;&lt;/div&gt;" style="text;html=1;align=center;verticalAlign=middle;whiteSpace=wrap;rounded=0;" vertex="1" parent="1">
          <mxGeometry x="190" y="191.5" width="60" height="30" as="geometry" />
        </mxCell>
        <mxCell id="wIALHnG7Qorzdpag021h-23" value="&lt;font style=&quot;font-size: 14px;&quot;&gt;0x30af&lt;/font&gt;" style="text;html=1;align=center;verticalAlign=middle;whiteSpace=wrap;rounded=0;" vertex="1" parent="1">
          <mxGeometry x="189" y="279" width="60" height="30" as="geometry" />
        </mxCell>
        <mxCell id="wIALHnG7Qorzdpag021h-24" value="" style="rounded=1;whiteSpace=wrap;html=1;fillColor=#CCCCCC;strokeColor=#666666;fontColor=#333333;" vertex="1" parent="1">
          <mxGeometry x="184" y="364" width="200" height="75" as="geometry" />
        </mxCell>
        <mxCell id="wIALHnG7Qorzdpag021h-25" value="on-disk file" style="text;html=1;align=center;verticalAlign=middle;whiteSpace=wrap;rounded=0;" vertex="1" parent="1">
          <mxGeometry x="251" y="358.5" width="60" height="30" as="geometry" />
        </mxCell>
        <mxCell id="wIALHnG7Qorzdpag021h-26" value="" style="sketch=0;pointerEvents=1;shadow=0;dashed=0;html=1;strokeColor=none;fillColor=#505050;labelPosition=center;verticalLabelPosition=bottom;verticalAlign=top;outlineConnect=0;align=center;shape=mxgraph.office.concepts.document;" vertex="1" parent="1">
          <mxGeometry x="199" y="385.5" width="40" height="47" as="geometry" />
        </mxCell>
        <mxCell id="wIALHnG7Qorzdpag021h-27" value="" style="sketch=0;pointerEvents=1;shadow=0;dashed=0;html=1;strokeColor=none;fillColor=#505050;labelPosition=center;verticalLabelPosition=bottom;verticalAlign=top;outlineConnect=0;align=center;shape=mxgraph.office.concepts.document;" vertex="1" parent="1">
          <mxGeometry x="264" y="385.5" width="40" height="47" as="geometry" />
        </mxCell>
        <mxCell id="wIALHnG7Qorzdpag021h-28" value="" style="sketch=0;pointerEvents=1;shadow=0;dashed=0;html=1;strokeColor=none;fillColor=#505050;labelPosition=center;verticalLabelPosition=bottom;verticalAlign=top;outlineConnect=0;align=center;shape=mxgraph.office.concepts.document;" vertex="1" parent="1">
          <mxGeometry x="329" y="385.5" width="40" height="47" as="geometry" />
        </mxCell>
        <mxCell id="wIALHnG7Qorzdpag021h-29" value="" style="endArrow=none;html=1;rounded=0;dashed=1;endFill=0;" edge="1" parent="1">
          <mxGeometry width="50" height="50" relative="1" as="geometry">
            <mxPoint x="220" y="237" as="sourcePoint" />
            <mxPoint x="220" y="269" as="targetPoint" />
          </mxGeometry>
        </mxCell>
        <mxCell id="wIALHnG7Qorzdpag021h-33" value="" style="endArrow=none;dashed=1;html=1;dashPattern=1 3;strokeWidth=2;rounded=0;" edge="1" parent="1">
          <mxGeometry width="50" height="50" relative="1" as="geometry">
            <mxPoint x="420" y="460" as="sourcePoint" />
            <mxPoint x="420" y="90" as="targetPoint" />
          </mxGeometry>
        </mxCell>
        <mxCell id="wIALHnG7Qorzdpag021h-34" value="" style="sketch=0;pointerEvents=1;shadow=0;dashed=0;html=1;strokeColor=none;fillColor=#434445;aspect=fixed;labelPosition=center;verticalLabelPosition=bottom;verticalAlign=top;align=center;outlineConnect=0;shape=mxgraph.vvd.cpu;" vertex="1" parent="1">
          <mxGeometry x="451" y="121.5" width="70" height="70" as="geometry" />
        </mxCell>
        <mxCell id="wIALHnG7Qorzdpag021h-35" value="CPU" style="text;html=1;align=center;verticalAlign=middle;whiteSpace=wrap;rounded=0;" vertex="1" parent="1">
          <mxGeometry x="457" y="140.5" width="60" height="30" as="geometry" />
        </mxCell>
        <mxCell id="wIALHnG7Qorzdpag021h-36" value="" style="sketch=0;pointerEvents=1;shadow=0;dashed=0;html=1;strokeColor=none;fillColor=#005F4B;labelPosition=center;verticalLabelPosition=bottom;verticalAlign=top;align=center;outlineConnect=0;shape=mxgraph.veeam2.ram;rotation=297;" vertex="1" parent="1">
          <mxGeometry x="59.5" y="274" width="90" height="40" as="geometry" />
        </mxCell>
        <mxCell id="wIALHnG7Qorzdpag021h-38" value="" style="sketch=0;pointerEvents=1;shadow=0;dashed=0;html=1;strokeColor=none;fillColor=#505050;labelPosition=center;verticalLabelPosition=bottom;verticalAlign=top;outlineConnect=0;align=center;shape=mxgraph.office.devices.hard_disk;" vertex="1" parent="1">
          <mxGeometry x="95" y="378.5" width="40" height="54" as="geometry" />
        </mxCell>
        <mxCell id="wIALHnG7Qorzdpag021h-42" value="" style="shape=table;startSize=0;container=1;collapsible=0;childLayout=tableLayout;fontSize=16;fillColor=none;" vertex="1" parent="1">
          <mxGeometry x="570" y="100" width="130" height="115" as="geometry" />
        </mxCell>
        <mxCell id="wIALHnG7Qorzdpag021h-43" value="" style="shape=tableRow;horizontal=0;startSize=0;swimlaneHead=0;swimlaneBody=0;strokeColor=inherit;top=0;left=0;bottom=0;right=0;collapsible=0;dropTarget=0;fillColor=none;points=[[0,0.5],[1,0.5]];portConstraint=eastwest;fontSize=16;" vertex="1" parent="wIALHnG7Qorzdpag021h-42">
          <mxGeometry width="130" height="39" as="geometry" />
        </mxCell>
        <mxCell id="wIALHnG7Qorzdpag021h-44" value="&lt;b style=&quot;&quot;&gt;virtual&lt;/b&gt;" style="shape=partialRectangle;html=1;whiteSpace=wrap;connectable=0;strokeColor=inherit;overflow=hidden;fillColor=none;top=0;left=0;bottom=0;right=0;pointerEvents=1;fontSize=16;" vertex="1" parent="wIALHnG7Qorzdpag021h-43">
          <mxGeometry width="65" height="39" as="geometry">
            <mxRectangle width="65" height="39" as="alternateBounds" />
          </mxGeometry>
        </mxCell>
        <mxCell id="wIALHnG7Qorzdpag021h-45" value="&lt;b&gt;physical&lt;/b&gt;" style="shape=partialRectangle;html=1;whiteSpace=wrap;connectable=0;strokeColor=inherit;overflow=hidden;fillColor=none;top=0;left=0;bottom=0;right=0;pointerEvents=1;fontSize=16;" vertex="1" parent="wIALHnG7Qorzdpag021h-43">
          <mxGeometry x="65" width="65" height="39" as="geometry">
            <mxRectangle width="65" height="39" as="alternateBounds" />
          </mxGeometry>
        </mxCell>
        <mxCell id="wIALHnG7Qorzdpag021h-47" value="" style="shape=tableRow;horizontal=0;startSize=0;swimlaneHead=0;swimlaneBody=0;strokeColor=inherit;top=0;left=0;bottom=0;right=0;collapsible=0;dropTarget=0;fillColor=none;points=[[0,0.5],[1,0.5]];portConstraint=eastwest;fontSize=16;" vertex="1" parent="wIALHnG7Qorzdpag021h-42">
          <mxGeometry y="39" width="130" height="37" as="geometry" />
        </mxCell>
        <mxCell id="wIALHnG7Qorzdpag021h-48" value="&lt;span style=&quot;font-size: 14px;&quot;&gt;0x56a3&lt;/span&gt;" style="shape=partialRectangle;html=1;whiteSpace=wrap;connectable=0;strokeColor=inherit;overflow=hidden;fillColor=none;top=0;left=0;bottom=0;right=0;pointerEvents=1;fontSize=16;" vertex="1" parent="wIALHnG7Qorzdpag021h-47">
          <mxGeometry width="65" height="37" as="geometry">
            <mxRectangle width="65" height="37" as="alternateBounds" />
          </mxGeometry>
        </mxCell>
        <mxCell id="wIALHnG7Qorzdpag021h-49" value="" style="shape=partialRectangle;html=1;whiteSpace=wrap;connectable=0;strokeColor=inherit;overflow=hidden;fillColor=none;top=0;left=0;bottom=0;right=0;pointerEvents=1;fontSize=16;" vertex="1" parent="wIALHnG7Qorzdpag021h-47">
          <mxGeometry x="65" width="65" height="37" as="geometry">
            <mxRectangle width="65" height="37" as="alternateBounds" />
          </mxGeometry>
        </mxCell>
        <mxCell id="wIALHnG7Qorzdpag021h-51" value="" style="shape=tableRow;horizontal=0;startSize=0;swimlaneHead=0;swimlaneBody=0;strokeColor=inherit;top=0;left=0;bottom=0;right=0;collapsible=0;dropTarget=0;fillColor=none;points=[[0,0.5],[1,0.5]];portConstraint=eastwest;fontSize=16;" vertex="1" parent="wIALHnG7Qorzdpag021h-42">
          <mxGeometry y="76" width="130" height="39" as="geometry" />
        </mxCell>
        <mxCell id="wIALHnG7Qorzdpag021h-52" value="" style="shape=partialRectangle;html=1;whiteSpace=wrap;connectable=0;strokeColor=inherit;overflow=hidden;fillColor=none;top=0;left=0;bottom=0;right=0;pointerEvents=1;fontSize=16;" vertex="1" parent="wIALHnG7Qorzdpag021h-51">
          <mxGeometry width="65" height="39" as="geometry">
            <mxRectangle width="65" height="39" as="alternateBounds" />
          </mxGeometry>
        </mxCell>
        <mxCell id="wIALHnG7Qorzdpag021h-53" value="" style="shape=partialRectangle;html=1;whiteSpace=wrap;connectable=0;strokeColor=inherit;overflow=hidden;fillColor=none;top=0;left=0;bottom=0;right=0;pointerEvents=1;fontSize=16;" vertex="1" parent="wIALHnG7Qorzdpag021h-51">
          <mxGeometry x="65" width="65" height="39" as="geometry">
            <mxRectangle width="65" height="39" as="alternateBounds" />
          </mxGeometry>
        </mxCell>
        <mxCell id="wIALHnG7Qorzdpag021h-63" value="&lt;font style=&quot;font-size: 14px;&quot;&gt;0x30af&lt;/font&gt;" style="text;html=1;align=center;verticalAlign=middle;whiteSpace=wrap;rounded=0;" vertex="1" parent="1">
          <mxGeometry x="640" y="142.5" width="60" height="30" as="geometry" />
        </mxCell>
        <mxCell id="wIALHnG7Qorzdpag021h-64" value="&lt;font style=&quot;font-size: 16px;&quot;&gt;TLB&lt;/font&gt;" style="text;html=1;align=center;verticalAlign=middle;whiteSpace=wrap;rounded=0;" vertex="1" parent="1">
          <mxGeometry x="516" y="142.5" width="60" height="30" as="geometry" />
        </mxCell>
        <mxCell id="wIALHnG7Qorzdpag021h-65" value="" style="sketch=0;pointerEvents=1;shadow=0;dashed=0;html=1;strokeColor=none;fillColor=#005F4B;labelPosition=center;verticalLabelPosition=bottom;verticalAlign=top;align=center;outlineConnect=0;shape=mxgraph.veeam2.ram;rotation=-70;" vertex="1" parent="1">
          <mxGeometry x="441" y="280" width="90" height="40" as="geometry" />
        </mxCell>
        <mxCell id="wIALHnG7Qorzdpag021h-66" value="" style="endArrow=none;html=1;rounded=0;" edge="1" parent="1">
          <mxGeometry width="50" height="50" relative="1" as="geometry">
            <mxPoint x="314" y="236.5" as="sourcePoint" />
            <mxPoint x="314" y="186.5" as="targetPoint" />
          </mxGeometry>
        </mxCell>
        <mxCell id="wIALHnG7Qorzdpag021h-67" value="" style="endArrow=none;html=1;rounded=0;" edge="1" parent="1">
          <mxGeometry width="50" height="50" relative="1" as="geometry">
            <mxPoint x="250" y="320" as="sourcePoint" />
            <mxPoint x="250" y="269" as="targetPoint" />
          </mxGeometry>
        </mxCell>
        <mxCell id="wIALHnG7Qorzdpag021h-68" value="" style="endArrow=none;html=1;rounded=0;" edge="1" parent="1">
          <mxGeometry width="50" height="50" relative="1" as="geometry">
            <mxPoint x="315" y="320" as="sourcePoint" />
            <mxPoint x="315" y="269" as="targetPoint" />
          </mxGeometry>
        </mxCell>
        <mxCell id="wIALHnG7Qorzdpag021h-69" value="" style="endArrow=none;html=1;rounded=0;dashed=1;endFill=0;" edge="1" parent="1" target="wIALHnG7Qorzdpag021h-26">
          <mxGeometry width="50" height="50" relative="1" as="geometry">
            <mxPoint x="220" y="320" as="sourcePoint" />
            <mxPoint x="220" y="360" as="targetPoint" />
          </mxGeometry>
        </mxCell>
        <mxCell id="wIALHnG7Qorzdpag021h-70" value="" style="shape=table;startSize=0;container=1;collapsible=0;childLayout=tableLayout;fontSize=16;fillColor=none;" vertex="1" parent="1">
          <mxGeometry x="570" y="236.5" width="130" height="115" as="geometry" />
        </mxCell>
        <mxCell id="wIALHnG7Qorzdpag021h-71" value="" style="shape=tableRow;horizontal=0;startSize=0;swimlaneHead=0;swimlaneBody=0;strokeColor=inherit;top=0;left=0;bottom=0;right=0;collapsible=0;dropTarget=0;fillColor=none;points=[[0,0.5],[1,0.5]];portConstraint=eastwest;fontSize=16;" vertex="1" parent="wIALHnG7Qorzdpag021h-70">
          <mxGeometry width="130" height="39" as="geometry" />
        </mxCell>
        <mxCell id="wIALHnG7Qorzdpag021h-72" value="&lt;b&gt;virtual&lt;/b&gt;" style="shape=partialRectangle;html=1;whiteSpace=wrap;connectable=0;strokeColor=inherit;overflow=hidden;fillColor=none;top=0;left=0;bottom=0;right=0;pointerEvents=1;fontSize=16;" vertex="1" parent="wIALHnG7Qorzdpag021h-71">
          <mxGeometry width="65" height="39" as="geometry">
            <mxRectangle width="65" height="39" as="alternateBounds" />
          </mxGeometry>
        </mxCell>
        <mxCell id="wIALHnG7Qorzdpag021h-73" value="&lt;b&gt;physical&lt;/b&gt;" style="shape=partialRectangle;html=1;whiteSpace=wrap;connectable=0;strokeColor=inherit;overflow=hidden;fillColor=none;top=0;left=0;bottom=0;right=0;pointerEvents=1;fontSize=16;" vertex="1" parent="wIALHnG7Qorzdpag021h-71">
          <mxGeometry x="65" width="65" height="39" as="geometry">
            <mxRectangle width="65" height="39" as="alternateBounds" />
          </mxGeometry>
        </mxCell>
        <mxCell id="wIALHnG7Qorzdpag021h-74" value="" style="shape=tableRow;horizontal=0;startSize=0;swimlaneHead=0;swimlaneBody=0;strokeColor=inherit;top=0;left=0;bottom=0;right=0;collapsible=0;dropTarget=0;fillColor=none;points=[[0,0.5],[1,0.5]];portConstraint=eastwest;fontSize=16;" vertex="1" parent="wIALHnG7Qorzdpag021h-70">
          <mxGeometry y="39" width="130" height="37" as="geometry" />
        </mxCell>
        <mxCell id="wIALHnG7Qorzdpag021h-75" value="&lt;span style=&quot;font-size: 14px;&quot;&gt;0x56a3&lt;/span&gt;" style="shape=partialRectangle;html=1;whiteSpace=wrap;connectable=0;strokeColor=inherit;overflow=hidden;fillColor=none;top=0;left=0;bottom=0;right=0;pointerEvents=1;fontSize=16;" vertex="1" parent="wIALHnG7Qorzdpag021h-74">
          <mxGeometry width="65" height="37" as="geometry">
            <mxRectangle width="65" height="37" as="alternateBounds" />
          </mxGeometry>
        </mxCell>
        <mxCell id="wIALHnG7Qorzdpag021h-76" value="" style="shape=partialRectangle;html=1;whiteSpace=wrap;connectable=0;strokeColor=inherit;overflow=hidden;fillColor=none;top=0;left=0;bottom=0;right=0;pointerEvents=1;fontSize=16;" vertex="1" parent="wIALHnG7Qorzdpag021h-74">
          <mxGeometry x="65" width="65" height="37" as="geometry">
            <mxRectangle width="65" height="37" as="alternateBounds" />
          </mxGeometry>
        </mxCell>
        <mxCell id="wIALHnG7Qorzdpag021h-77" value="" style="shape=tableRow;horizontal=0;startSize=0;swimlaneHead=0;swimlaneBody=0;strokeColor=inherit;top=0;left=0;bottom=0;right=0;collapsible=0;dropTarget=0;fillColor=none;points=[[0,0.5],[1,0.5]];portConstraint=eastwest;fontSize=16;" vertex="1" parent="wIALHnG7Qorzdpag021h-70">
          <mxGeometry y="76" width="130" height="39" as="geometry" />
        </mxCell>
        <mxCell id="wIALHnG7Qorzdpag021h-78" value="" style="shape=partialRectangle;html=1;whiteSpace=wrap;connectable=0;strokeColor=inherit;overflow=hidden;fillColor=none;top=0;left=0;bottom=0;right=0;pointerEvents=1;fontSize=16;" vertex="1" parent="wIALHnG7Qorzdpag021h-77">
          <mxGeometry width="65" height="39" as="geometry">
            <mxRectangle width="65" height="39" as="alternateBounds" />
          </mxGeometry>
        </mxCell>
        <mxCell id="wIALHnG7Qorzdpag021h-79" value="" style="shape=partialRectangle;html=1;whiteSpace=wrap;connectable=0;strokeColor=inherit;overflow=hidden;fillColor=none;top=0;left=0;bottom=0;right=0;pointerEvents=1;fontSize=16;" vertex="1" parent="wIALHnG7Qorzdpag021h-77">
          <mxGeometry x="65" width="65" height="39" as="geometry">
            <mxRectangle width="65" height="39" as="alternateBounds" />
          </mxGeometry>
        </mxCell>
        <mxCell id="wIALHnG7Qorzdpag021h-80" value="&lt;font style=&quot;font-size: 14px;&quot;&gt;0x30af&lt;/font&gt;" style="text;html=1;align=center;verticalAlign=middle;whiteSpace=wrap;rounded=0;" vertex="1" parent="1">
          <mxGeometry x="640" y="279" width="60" height="30" as="geometry" />
        </mxCell>
        <mxCell id="wIALHnG7Qorzdpag021h-81" value="&lt;font style=&quot;font-size: 16px;&quot;&gt;Page&lt;/font&gt;&lt;div style=&quot;font-size: 16px;&quot;&gt;&lt;font style=&quot;font-size: 16px;&quot;&gt;Table&lt;/font&gt;&lt;/div&gt;" style="text;html=1;align=center;verticalAlign=middle;whiteSpace=wrap;rounded=0;" vertex="1" parent="1">
          <mxGeometry x="516" y="266" width="60" height="51" as="geometry" />
        </mxCell>
        <mxCell id="wIALHnG7Qorzdpag021h-83" value="" style="endArrow=none;html=1;rounded=0;" edge="1" parent="1">
          <mxGeometry width="50" height="50" relative="1" as="geometry">
            <mxPoint x="700" y="290" as="sourcePoint" />
            <mxPoint x="740" y="290" as="targetPoint" />
          </mxGeometry>
        </mxCell>
        <mxCell id="wIALHnG7Qorzdpag021h-84" value="" style="endArrow=classic;html=1;rounded=0;" edge="1" parent="1">
          <mxGeometry width="50" height="50" relative="1" as="geometry">
            <mxPoint x="740" y="157" as="sourcePoint" />
            <mxPoint x="700" y="157" as="targetPoint" />
          </mxGeometry>
        </mxCell>
        <mxCell id="wIALHnG7Qorzdpag021h-85" value="" style="endArrow=none;html=1;rounded=0;" edge="1" parent="1">
          <mxGeometry width="50" height="50" relative="1" as="geometry">
            <mxPoint x="740" y="290" as="sourcePoint" />
            <mxPoint x="740" y="157" as="targetPoint" />
          </mxGeometry>
        </mxCell>
        <mxCell id="wIALHnG7Qorzdpag021h-86" value="&lt;font style=&quot;font-size: 15px;&quot;&gt;1. 应用程序调用 mmap 接口，获取一个指向文件的指针；&lt;/font&gt;&lt;div style=&quot;font-size: 15px;&quot;&gt;&lt;font style=&quot;font-size: 15px;&quot;&gt;2. OS 在用户空间保存虚拟地址，但不加载文件的任何部分；&lt;/font&gt;&lt;/div&gt;&lt;div style=&quot;font-size: 15px;&quot;&gt;&lt;font style=&quot;font-size: 15px;&quot;&gt;3. 应用程序通过指针访问文件内容；&lt;/font&gt;&lt;/div&gt;&lt;div style=&quot;font-size: 15px;&quot;&gt;&lt;font style=&quot;font-size: 15px;&quot;&gt;4. OS 试图检索页数据；&lt;/font&gt;&lt;/div&gt;&lt;div style=&quot;font-size: 15px;&quot;&gt;&lt;font style=&quot;font-size: 15px;&quot;&gt;5. 因为虚拟地址不存在有效的地址映射关系，OS 触发页错误，然后&lt;/font&gt;&lt;span style=&quot;background-color: initial;&quot;&gt;将存储设备中的文件加载到物理内存中；&lt;/span&gt;&lt;/div&gt;&lt;div style=&quot;font-size: 15px;&quot;&gt;&lt;font style=&quot;font-size: 15px;&quot;&gt;6. OS 在页表中建立虚拟地址和物理地址的映射关系；&lt;/font&gt;&lt;/div&gt;&lt;div style=&quot;font-size: 15px;&quot;&gt;&lt;font style=&quot;font-size: 15px;&quot;&gt;7. CPU 进行指令处理，并在 TLB(translation lookaside buffer) 中缓存这个实体。&lt;/font&gt;&lt;/div&gt;" style="shape=note;whiteSpace=wrap;html=1;backgroundOutline=1;darkOpacity=0.05;fillColor=#f9f7ed;align=left;strokeColor=#36393d;size=25;" vertex="1" parent="1">
          <mxGeometry x="228" y="460" width="421" height="170" as="geometry" />
        </mxCell>
        <mxCell id="wIALHnG7Qorzdpag021h-91" value="⑥" style="text;html=1;align=center;verticalAlign=middle;whiteSpace=wrap;rounded=0;" vertex="1" parent="1">
          <mxGeometry x="690" y="284" width="60" height="30" as="geometry" />
        </mxCell>
        <mxCell id="wIALHnG7Qorzdpag021h-92" value="⑦" style="text;html=1;align=center;verticalAlign=middle;whiteSpace=wrap;rounded=0;" vertex="1" parent="1">
          <mxGeometry x="690" y="156.5" width="60" height="30" as="geometry" />
        </mxCell>
        <mxCell id="wIALHnG7Qorzdpag021h-93" value="③ printf(data[0])" style="text;html=1;align=center;verticalAlign=middle;whiteSpace=wrap;rounded=0;" vertex="1" parent="1">
          <mxGeometry x="228" y="156.5" width="101" height="30" as="geometry" />
        </mxCell>
        <mxCell id="wIALHnG7Qorzdpag021h-94" value="④" style="text;html=1;align=center;verticalAlign=middle;whiteSpace=wrap;rounded=0;" vertex="1" parent="1">
          <mxGeometry x="204" y="239" width="60" height="30" as="geometry" />
        </mxCell>
        <mxCell id="wIALHnG7Qorzdpag021h-95" value="⑤" style="text;html=1;align=center;verticalAlign=middle;whiteSpace=wrap;rounded=0;" vertex="1" parent="1">
          <mxGeometry x="203" y="327.5" width="60" height="30" as="geometry" />
        </mxCell>
        <mxCell id="wIALHnG7Qorzdpag021h-96" value="mmap 原理" style="rounded=1;whiteSpace=wrap;html=1;fillColor=#f8cecc;strokeColor=#000000;fontSize=20;gradientColor=#ea6b66;" vertex="1" parent="1">
          <mxGeometry x="10" y="10" width="120" height="60" as="geometry" />
        </mxCell>
      </root>
    </mxGraphModel>
  </diagram>
</mxfile>
